<svg width="366" height="399" viewBox="0 0 366 399" fill="none" xmlns="http://www.w3.org/2000/svg">
    <path d="M26.5928 288.886V398.893H222.8L366 109.741V0H169.512L26.5928 288.886Z" fill="url(#paint0_linear_35_66)"/>
    <path d="M343.268 155.641C333.482 128.921 308.089 108.451 275.914 108.451H96.3668C74.7901 108.451 57.2988 125.942 57.2988 147.519V273.188C57.2988 294.764 74.7902 312.256 96.3668 312.256H210.315L238.255 367.685L343.268 155.641Z" fill="white"/>
    <path d="M130.227 22.5016C120.877 22.5016 113.297 30.0812 113.297 39.4311C113.297 48.781 120.877 56.3605 130.227 56.3605H178.411V91.5217L96.3671 91.5217C65.4406 91.5217 40.3697 116.593 40.3697 147.519V194.401H16.9295C7.57957 194.401 0 201.98 0 211.33C2.29741e-06 220.68 7.57958 228.26 16.9295 228.26L40.3697 228.259V273.188C40.3697 304.114 65.4406 329.185 96.3671 329.185H199.89L228.86 386.657L247.651 348.713L220.74 295.326H96.3671C84.1404 295.326 74.2286 285.415 74.2286 273.188V147.519C74.2286 135.292 84.1404 125.381 96.3671 125.381H275.914C307.967 125.381 331.205 151.982 330.67 181.079L352.868 136.257C337.966 110.127 310.023 91.5217 275.914 91.5217L212.27 91.5217V44.6402C212.27 32.4134 202.358 22.5016 190.131 22.5016H130.227Z" fill="black"/>
    <path d="M158.876 191.796C158.876 182.446 151.296 174.867 141.946 174.867C132.596 174.867 125.017 182.446 125.017 191.796V230.864C125.017 240.214 132.596 247.794 141.946 247.794C151.296 247.794 158.876 240.214 158.876 230.864V191.796Z" fill="black"/>
    <path d="M265.661 191.796C265.661 182.446 258.081 174.867 248.731 174.867C239.382 174.867 231.802 182.446 231.802 191.796V230.864C231.802 240.214 239.382 247.794 248.731 247.794C258.081 247.794 265.661 240.214 265.661 230.864V191.796Z" fill="black"/>
    <defs>
        <linearGradient id="paint0_linear_35_66" x1="220.358" y1="3.83452e-06" x2="120.712" y2="733.06" gradientUnits="userSpaceOnUse">
            <stop offset="0.197917" stop-color="#FF6E4A"/>
            <stop offset="1" stop-color="#FF008A"/>
        </linearGradient>
    </defs>
</svg>
